<mxfile host="Electron" modified="2023-12-18T15:17:44.781Z" agent="Mozilla/5.0 (Macintosh; Intel Mac OS X 10_15_7) AppleWebKit/537.36 (KHTML, like Gecko) draw.io/22.1.2 Chrome/114.0.5735.289 Electron/25.9.4 Safari/537.36" etag="XPqmtJ7hKSAU9EgIKT3Y" version="22.1.2" type="device">
  <diagram id="E2ULkJl6go0xUk4_vNiQ" name="Page-1">
    <mxGraphModel dx="2822" dy="1628" grid="1" gridSize="10" guides="1" tooltips="1" connect="1" arrows="1" fold="1" page="0" pageScale="1" pageWidth="1100" pageHeight="850" math="0" shadow="0">
      <root>
        <mxCell id="0" />
        <mxCell id="1" parent="0" />
        <mxCell id="T9uYkhnXP1cCb1YAXDwV-2" value="" style="rounded=0;whiteSpace=wrap;html=1;fillColor=#f9f7ed;strokeColor=none;" parent="1" vertex="1">
          <mxGeometry x="180" y="170" width="450" height="450" as="geometry" />
        </mxCell>
        <mxCell id="T9uYkhnXP1cCb1YAXDwV-3" value="" style="rounded=0;whiteSpace=wrap;html=1;strokeColor=none;fillColor=#D5E8D4;" parent="1" vertex="1">
          <mxGeometry x="630" y="170" width="300" height="450" as="geometry" />
        </mxCell>
        <mxCell id="XKbH0hADGiryWMfeD4Mq-1" value="requirements report" style="shape=document;whiteSpace=wrap;html=1;boundedLbl=1;" parent="1" vertex="1">
          <mxGeometry x="660" y="510" width="120" height="80" as="geometry" />
        </mxCell>
        <mxCell id="H5XpePlX6ZwJJM3T6B_w-3" style="edgeStyle=orthogonalEdgeStyle;rounded=0;orthogonalLoop=1;jettySize=auto;html=1;exitX=0.25;exitY=1;exitDx=0;exitDy=0;entryX=0.5;entryY=1;entryDx=0;entryDy=0;entryPerimeter=0;dashed=1;" parent="1" source="XKbH0hADGiryWMfeD4Mq-48" target="H5XpePlX6ZwJJM3T6B_w-1" edge="1">
          <mxGeometry relative="1" as="geometry">
            <Array as="points">
              <mxPoint x="390" y="540" />
              <mxPoint x="240" y="540" />
            </Array>
          </mxGeometry>
        </mxCell>
        <mxCell id="XKbH0hADGiryWMfeD4Mq-39" style="edgeStyle=orthogonalEdgeStyle;rounded=0;orthogonalLoop=1;jettySize=auto;html=1;entryX=0.25;entryY=0;entryDx=0;entryDy=0;fillColor=#6a00ff;strokeColor=#3700CC;" parent="1" source="XKbH0hADGiryWMfeD4Mq-5" target="XKbH0hADGiryWMfeD4Mq-48" edge="1">
          <mxGeometry relative="1" as="geometry">
            <Array as="points">
              <mxPoint x="375" y="290" />
              <mxPoint x="390" y="290" />
            </Array>
          </mxGeometry>
        </mxCell>
        <mxCell id="XKbH0hADGiryWMfeD4Mq-5" value="&lt;span style=&quot;&quot;&gt;development&lt;br&gt;SME&lt;/span&gt;" style="shape=umlActor;verticalLabelPosition=bottom;labelBackgroundColor=#F9F7ED;verticalAlign=top;html=1;outlineConnect=0;fillColor=#F9F7ED;" parent="1" vertex="1">
          <mxGeometry x="360" y="190" width="30" height="60" as="geometry" />
        </mxCell>
        <mxCell id="XKbH0hADGiryWMfeD4Mq-40" style="edgeStyle=orthogonalEdgeStyle;rounded=0;orthogonalLoop=1;jettySize=auto;html=1;entryX=0.75;entryY=0;entryDx=0;entryDy=0;fillColor=#6a00ff;strokeColor=#3700CC;" parent="1" target="XKbH0hADGiryWMfeD4Mq-48" edge="1">
          <mxGeometry relative="1" as="geometry">
            <mxPoint x="465" y="250" as="sourcePoint" />
            <Array as="points">
              <mxPoint x="465" y="290" />
              <mxPoint x="450" y="290" />
            </Array>
          </mxGeometry>
        </mxCell>
        <mxCell id="T9uYkhnXP1cCb1YAXDwV-7" value="" style="edgeStyle=orthogonalEdgeStyle;rounded=0;orthogonalLoop=1;jettySize=auto;html=1;fillColor=#6a00ff;strokeColor=#3700CC;entryX=0.5;entryY=0;entryDx=0;entryDy=0;" parent="1" target="XKbH0hADGiryWMfeD4Mq-11" edge="1" source="vc7AVv7h6INl57xTox3g-1">
          <mxGeometry relative="1" as="geometry">
            <Array as="points" />
            <mxPoint x="1050" y="300" as="sourcePoint" />
            <mxPoint x="1300" y="360" as="targetPoint" />
          </mxGeometry>
        </mxCell>
        <mxCell id="XKbH0hADGiryWMfeD4Mq-7" value="&lt;span style=&quot;&quot;&gt;security&lt;br&gt;SME&lt;/span&gt;" style="shape=umlActor;verticalLabelPosition=bottom;labelBackgroundColor=#F9F7ED;verticalAlign=top;html=1;outlineConnect=0;fillColor=none;" parent="1" vertex="1">
          <mxGeometry x="450" y="190" width="30" height="60" as="geometry" />
        </mxCell>
        <mxCell id="XKbH0hADGiryWMfeD4Mq-22" style="edgeStyle=orthogonalEdgeStyle;rounded=0;orthogonalLoop=1;jettySize=auto;html=1;entryX=0;entryY=0.25;entryDx=0;entryDy=0;strokeColor=#FF8000;" parent="1" source="XKbH0hADGiryWMfeD4Mq-9" target="XKbH0hADGiryWMfeD4Mq-48" edge="1">
          <mxGeometry relative="1" as="geometry" />
        </mxCell>
        <mxCell id="XKbH0hADGiryWMfeD4Mq-9" value="element functional requirements" style="shape=note;whiteSpace=wrap;html=1;backgroundOutline=1;darkOpacity=0.05;" parent="1" vertex="1">
          <mxGeometry x="200" y="290" width="80" height="100" as="geometry" />
        </mxCell>
        <mxCell id="XKbH0hADGiryWMfeD4Mq-24" style="edgeStyle=orthogonalEdgeStyle;rounded=0;orthogonalLoop=1;jettySize=auto;html=1;entryX=0;entryY=0.5;entryDx=0;entryDy=0;exitX=1;exitY=0.5;exitDx=0;exitDy=0;entryPerimeter=0;" parent="1" source="XKbH0hADGiryWMfeD4Mq-48" target="8ABmSXp1aVmwxvK26rjk-1" edge="1">
          <mxGeometry relative="1" as="geometry">
            <mxPoint x="650" y="390" as="sourcePoint" />
          </mxGeometry>
        </mxCell>
        <mxCell id="XKbH0hADGiryWMfeD4Mq-27" style="edgeStyle=orthogonalEdgeStyle;rounded=0;orthogonalLoop=1;jettySize=auto;html=1;entryX=0;entryY=0.5;entryDx=0;entryDy=0;entryPerimeter=0;" parent="1" source="XKbH0hADGiryWMfeD4Mq-11" target="XKbH0hADGiryWMfeD4Mq-12" edge="1">
          <mxGeometry relative="1" as="geometry" />
        </mxCell>
        <mxCell id="XKbH0hADGiryWMfeD4Mq-54" style="edgeStyle=orthogonalEdgeStyle;rounded=0;orthogonalLoop=1;jettySize=auto;html=1;entryX=0.5;entryY=0;entryDx=0;entryDy=0;exitX=0.5;exitY=1;exitDx=0;exitDy=0;" parent="1" source="XKbH0hADGiryWMfeD4Mq-11" target="XKbH0hADGiryWMfeD4Mq-1" edge="1">
          <mxGeometry relative="1" as="geometry" />
        </mxCell>
        <mxCell id="XKbH0hADGiryWMfeD4Mq-11" value="product-level security catalog&lt;br&gt;creation" style="shape=process;whiteSpace=wrap;html=1;backgroundOutline=1;" parent="1" vertex="1">
          <mxGeometry x="660" y="370" width="120" height="60" as="geometry" />
        </mxCell>
        <mxCell id="XKbH0hADGiryWMfeD4Mq-12" value="product-level security requirements catalog" style="shape=note;whiteSpace=wrap;html=1;backgroundOutline=1;darkOpacity=0.05;" parent="1" vertex="1">
          <mxGeometry x="830" y="350" width="80" height="100" as="geometry" />
        </mxCell>
        <mxCell id="XKbH0hADGiryWMfeD4Mq-48" value="requirements applicability&lt;br&gt;analysis" style="shape=process;whiteSpace=wrap;html=1;backgroundOutline=1;" parent="1" vertex="1">
          <mxGeometry x="360" y="370" width="120" height="60" as="geometry" />
        </mxCell>
        <mxCell id="H5XpePlX6ZwJJM3T6B_w-2" style="edgeStyle=orthogonalEdgeStyle;rounded=0;orthogonalLoop=1;jettySize=auto;html=1;exitX=1.025;exitY=0.51;exitDx=0;exitDy=0;exitPerimeter=0;entryX=0;entryY=0.75;entryDx=0;entryDy=0;strokeColor=#FF8000;" parent="1" source="H5XpePlX6ZwJJM3T6B_w-1" target="XKbH0hADGiryWMfeD4Mq-48" edge="1">
          <mxGeometry relative="1" as="geometry" />
        </mxCell>
        <mxCell id="H5XpePlX6ZwJJM3T6B_w-1" value="global&lt;br&gt;security requirements catalog" style="shape=note;whiteSpace=wrap;html=1;backgroundOutline=1;darkOpacity=0.05;" parent="1" vertex="1">
          <mxGeometry x="200" y="410" width="80" height="100" as="geometry" />
        </mxCell>
        <mxCell id="T9uYkhnXP1cCb1YAXDwV-4" value="requirements applicability analysis" style="text;html=1;strokeColor=none;fillColor=none;align=center;verticalAlign=middle;whiteSpace=wrap;rounded=0;" parent="1" vertex="1">
          <mxGeometry x="180" y="600" width="450" height="20" as="geometry" />
        </mxCell>
        <mxCell id="T9uYkhnXP1cCb1YAXDwV-5" value="product-level catalog creation" style="text;html=1;strokeColor=none;fillColor=none;align=center;verticalAlign=middle;whiteSpace=wrap;rounded=0;" parent="1" vertex="1">
          <mxGeometry x="630" y="600" width="300" height="20" as="geometry" />
        </mxCell>
        <mxCell id="8ABmSXp1aVmwxvK26rjk-2" style="edgeStyle=orthogonalEdgeStyle;rounded=0;orthogonalLoop=1;jettySize=auto;html=1;entryX=0;entryY=0.5;entryDx=0;entryDy=0;strokeColor=#FF8000;" parent="1" source="8ABmSXp1aVmwxvK26rjk-1" target="XKbH0hADGiryWMfeD4Mq-11" edge="1">
          <mxGeometry relative="1" as="geometry" />
        </mxCell>
        <mxCell id="8ABmSXp1aVmwxvK26rjk-1" value="list of applicable requirements" style="shape=note;whiteSpace=wrap;html=1;backgroundOutline=1;darkOpacity=0.05;" parent="1" vertex="1">
          <mxGeometry x="530" y="350" width="80" height="100" as="geometry" />
        </mxCell>
        <mxCell id="vc7AVv7h6INl57xTox3g-1" value="&lt;span style=&quot;background-color: rgb(213 , 232 , 212)&quot;&gt;security SME&lt;/span&gt;" style="shape=umlActor;verticalLabelPosition=bottom;labelBackgroundColor=#ffffff;verticalAlign=top;html=1;outlineConnect=0;fillColor=none;" parent="1" vertex="1">
          <mxGeometry x="705" y="190" width="30" height="60" as="geometry" />
        </mxCell>
      </root>
    </mxGraphModel>
  </diagram>
</mxfile>
